<svg width="760" height="1280" viewBox="0 0 760 1280" fill="none" xmlns="http://www.w3.org/2000/svg">
  <rect width="760" height="1280" rx="72" fill="#312E3F"/>
  <rect x="26" y="26" width="708" height="1228" rx="56" fill="#F8FAF8"/>
  <rect x="281" y="54" width="198" height="24" rx="12" fill="#D4D6DA"/>
  <rect x="62" y="116" width="636" height="128" rx="30" fill="#FFFFFF"/>
  <text x="100" y="172" fill="#312E3F" font-family="Arial, sans-serif" font-size="30" font-weight="700">Recoltare nouă</text>
  <text x="100" y="210" fill="#61707A" font-family="Arial, sans-serif" font-size="20">Parcela ZME-03 · azi</text>
  <rect x="62" y="278" width="636" height="220" rx="34" fill="#FFFFFF"/>
  <text x="100" y="338" fill="#312E3F" font-family="Arial, sans-serif" font-size="24" font-weight="700">Cantitate</text>
  <rect x="100" y="366" width="560" height="78" rx="22" fill="#F6F2EF"/>
  <text x="126" y="414" fill="#312E3F" font-family="Arial, sans-serif" font-size="34" font-weight="700">120 kg</text>
  <text x="100" y="474" fill="#61707A" font-family="Arial, sans-serif" font-size="19">4 culegători · plata calculată automat</text>
  <rect x="62" y="532" width="636" height="292" rx="34" fill="#FFFFFF"/>
  <text x="100" y="592" fill="#312E3F" font-family="Arial, sans-serif" font-size="24" font-weight="700">Activități de azi</text>
  <rect x="100" y="632" width="560" height="68" rx="20" fill="#EEF4EF"/>
  <text x="126" y="675" fill="#2F6F4E" font-family="Arial, sans-serif" font-size="22" font-weight="700">Irigare solar</text>
  <rect x="100" y="720" width="560" height="68" rx="20" fill="#FFF1F1"/>
  <text x="126" y="763" fill="#F16B6B" font-family="Arial, sans-serif" font-size="22" font-weight="700">Sortare zmeură</text>
  <rect x="62" y="1080" width="636" height="110" rx="30" fill="#2F6F4E"/>
  <text x="245" y="1148" fill="#FFFFFF" font-family="Arial, sans-serif" font-size="32" font-weight="700">Salvează</text>
</svg>
