<svg width="1200" height="900" viewBox="0 0 1200 900" fill="none" xmlns="http://www.w3.org/2000/svg">
  <rect width="1200" height="900" rx="40" fill="#F7FBF8"/>
  <rect x="58" y="58" width="1084" height="784" rx="34" fill="#FFFFFF"/>
  <path d="M58 590C174 524 277 490 398 490C548 490 648 548 779 548C905 548 1012 506 1142 432V842H58V590Z" fill="#E7F1E6"/>
  <path d="M58 661C185 595 300 567 414 567C549 567 649 621 770 621C891 621 1010 576 1142 511V842H58V661Z" fill="#C8DDCB"/>
  <rect x="124" y="138" width="438" height="274" rx="28" fill="#FFF3F0"/>
  <rect x="638" y="138" width="438" height="274" rx="28" fill="#EFF6F1"/>
  <text x="166" y="208" fill="#312E3F" font-family="Arial, sans-serif" font-size="34" font-weight="700">Ferma de fructe de pădure</text>
  <text x="166" y="266" fill="#5B6571" font-family="Arial, sans-serif" font-size="24">Parcele, culegători, recoltări, livrări.</text>
  <text x="680" y="208" fill="#312E3F" font-family="Arial, sans-serif" font-size="34" font-weight="700">Solarul de legume</text>
  <text x="680" y="266" fill="#5B6571" font-family="Arial, sans-serif" font-size="24">Plantare, activități, irigare, climat.</text>
  <circle cx="212" cy="318" r="42" fill="#F16B6B"/>
  <circle cx="274" cy="339" r="38" fill="#D84B62"/>
  <circle cx="334" cy="318" r="34" fill="#F16B6B"/>
  <path d="M182 296C203 253 248 224 299 224C347 224 393 251 416 293C364 310 293 320 182 296Z" fill="#2F6F4E"/>
  <rect x="692" y="302" width="330" height="52" rx="18" fill="#2F6F4E"/>
  <rect x="728" y="246" width="58" height="104" rx="18" fill="#F16B6B"/>
  <rect x="818" y="224" width="58" height="126" rx="18" fill="#F7B04F"/>
  <rect x="908" y="196" width="58" height="154" rx="18" fill="#4AA56B"/>
  <rect x="144" y="500" width="274" height="200" rx="26" fill="#312E3F"/>
  <rect x="438" y="500" width="274" height="200" rx="26" fill="#FFFFFF" stroke="#E5E7EB" stroke-width="2"/>
  <rect x="732" y="500" width="274" height="200" rx="26" fill="#FFFFFF" stroke="#E5E7EB" stroke-width="2"/>
  <text x="178" y="560" fill="#FFFFFF" font-family="Arial, sans-serif" font-size="22" font-weight="700">Excel și notițe</text>
  <text x="178" y="604" fill="#D8D7E2" font-family="Arial, sans-serif" font-size="18">Fișiere separate și mult timp pierdut.</text>
  <text x="472" y="560" fill="#312E3F" font-family="Arial, sans-serif" font-size="22" font-weight="700">Date în timp real</text>
  <text x="472" y="604" fill="#5B6571" font-family="Arial, sans-serif" font-size="18">Toată activitatea fermei într-un singur loc.</text>
  <text x="766" y="560" fill="#312E3F" font-family="Arial, sans-serif" font-size="22" font-weight="700">Decizii mai clare</text>
  <text x="766" y="604" fill="#5B6571" font-family="Arial, sans-serif" font-size="18">Vezi ce produce, ce costă și ce se livrează.</text>
</svg>
